<?xml version="1.0" ?><svg height="512" id="svg2" version="1.1" width="512" xmlns="http://www.w3.org/2000/svg" xmlns:cc="http://creativecommons.org/ns#" xmlns:dc="http://purl.org/dc/elements/1.1/" xmlns:inkscape="http://www.inkscape.org/namespaces/inkscape" xmlns:rdf="http://www.w3.org/1999/02/22-rdf-syntax-ns#" xmlns:sodipodi="http://sodipodi.sourceforge.net/DTD/sodipodi-0.dtd" xmlns:svg="http://www.w3.org/2000/svg"><defs id="defs4"/><g id="layer1" transform="translate(0,-540.3622)"><path d="m 449.71939,922.74838 c -0.95636,-3.13468 -2.67844,-6.05391 -4.99216,-8.36805 l -97.94057,-97.95768 c 26.62687,-55.75391 16.86578,-124.55297 -29.31221,-170.73094 -58.57864,-58.57865 -153.55636,-58.58036 -212.13503,-0.002 -58.578622,58.57869 -58.580398,153.55648 -0.002,212.13507 46.17779,46.178 114.9929,55.93288 170.74678,29.30605 l 97.94057,97.95768 c 3.70263,3.70191 8.9245,5.87905 14.16035,5.87905 5.23581,3e-5 10.41953,-2.15261 14.12219,-5.85456 l 42.43082,-42.43081 c 3.70191,-3.70262 5.85702,-8.88628 5.857,-14.1221 2e-5,-1.96337 -0.30475,-3.93365 -0.87859,-5.81445 z M 307.92589,725.60476 c 9.01941,33.42639 0.42697,70.61739 -25.81139,96.85576 -39.05241,39.05242 -102.3582,39.05864 -141.41058,0.006 -39.05248,-39.05242 -39.05858,-102.35816 -0.006,-141.41063 39.05246,-39.05239 102.35817,-39.05863 141.41061,-0.006 12.81407,12.81409 21.41276,28.23033 25.8176,44.55484 z m -25.19905,-3.73011 a 12.50125,12.50125 0 0 0 -0.54726,-1.43864 C 268.62211,689.60438 236.5585,671.06827 203.06871,674.7613 a 12.50125,12.50125 0 0 0 -10.72056,15.65181 l 1.31027,4.89 a 12.50125,12.50125 0 0 0 13.23838,9.19961 c 19.97409,-1.87905 39.25221,9.25115 47.61196,27.48877 a 12.50125,12.50125 0 0 0 14.58629,6.86496 l 4.89,-1.31026 a 12.50125,12.50125 0 0 0 8.74179,-15.67154 z" id="path2991" style="color:#000000;fill:#222222;fill-opacity:1;fill-rule:nonzero;stroke:none;stroke-width:65.65214539;marker:none;visibility:visible;display:inline;overflow:visible;enable-background:accumulate"/></g></svg>